<svg class="md:h-5 md:w-[185px] logo-text_white" width="148" height="16" viewBox="0 0 148 16" fill="none" xmlns="http://www.w3.org/2000/svg"><path d="M26.7191 0.618238C26.5627 0.363692 26.2846 0.209147 25.9864 0.209147H21.2664C20.9682 0.209147 20.69 0.363692 20.5336 0.618238L18.3118 4.21824C18.1427 4.49097 17.7464 4.49097 17.5791 4.21824L15.3518 0.618238C15.1955 0.363692 14.9173 0.209147 14.6191 0.209147H9.8991C9.60092 0.209147 9.32274 0.363692 9.16638 0.618238L0.248193 15.0728C0.0718293 15.3601 0.277284 15.7291 0.615466 15.7291H5.04274C5.34092 15.7291 5.6191 15.5746 5.77547 15.3201L14.3027 1.50187C14.53 1.13278 15.1009 1.2946 15.1009 1.72733V9.10187C15.1009 9.30915 15.0427 9.51278 14.9336 9.69096L11.6118 15.0728C11.4355 15.3601 11.6409 15.7291 11.9791 15.7291H16.4082C16.7064 15.7291 16.9846 15.5746 17.1409 15.3201L25.67 1.50187C25.8973 1.13278 26.4682 1.2946 26.4682 1.72733V9.08006C26.4682 9.28733 26.41 9.49096 26.3027 9.66733L22.9736 15.0728C22.7973 15.3601 23.0027 15.7291 23.3409 15.7291H27.7773C28.0755 15.7291 28.3536 15.5746 28.51 15.3201L31.8736 9.87278C32.0446 9.5946 32.0446 9.24551 31.8736 8.96733L26.7191 0.618238Z" fill="#76FA92"></path><path class="logo-text" fill-rule="evenodd" clip-rule="evenodd" d="M74.8469 8.81454C74.7814 8.72182 74.7923 8.59455 74.8741 8.51455L78.8323 4.64909C78.9178 4.56545 78.9451 4.43818 78.8996 4.32727C78.8542 4.21636 78.7469 4.14364 78.6269 4.14364H76.1542C76.0778 4.14364 76.0032 4.17455 75.9469 4.22909L72.076 8.06364C71.9723 8.16727 71.7941 8.09273 71.7941 7.94727V0.294545C71.7941 0.130909 71.6614 0 71.4996 0H69.4996C69.3378 0 69.2051 0.132727 69.2051 0.294545V15.4327C69.2051 15.5964 69.3378 15.7273 69.4996 15.7273H71.4996C71.6614 15.7273 71.7941 15.5945 71.7941 15.4327L71.7851 11.5309C71.7851 11.4673 71.8105 11.4073 71.8578 11.3618L72.7087 10.5527C72.8123 10.4545 72.9778 10.4727 73.0578 10.5891L76.536 15.5982C76.5905 15.6782 76.6814 15.7255 76.7778 15.7255H79.1578C79.2687 15.7255 79.3687 15.6636 79.4196 15.5655C79.4705 15.4673 79.4614 15.3509 79.3978 15.26L74.8451 8.81273L74.8469 8.81454ZM54.3357 0.210938H51.0975C50.972 0.210938 50.8593 0.290938 50.8193 0.409119L47.092 11.2237C47.0557 11.3291 46.9066 11.3291 46.8702 11.2237L43.1393 0.407301C43.0975 0.289119 42.9866 0.210938 42.8611 0.210938H39.6175C39.4557 0.210938 39.3229 0.343665 39.3229 0.505483V15.4328C39.3229 15.5964 39.4557 15.7273 39.6175 15.7273H41.6175C41.7793 15.7273 41.912 15.5946 41.912 15.4328V5.69094C41.912 5.50548 42.1702 5.46185 42.232 5.63457L45.7793 15.5328C45.8211 15.6491 45.9338 15.7273 46.0557 15.7273H47.812C47.9357 15.7273 48.0466 15.6491 48.0884 15.5328L51.6375 5.63639C51.6993 5.46185 51.9575 5.5073 51.9575 5.69276V15.4346C51.9575 15.5982 52.0902 15.7291 52.252 15.7291H54.3357C54.4975 15.7291 54.6302 15.5964 54.6302 15.4346V0.505483C54.6302 0.343665 54.4975 0.210938 54.3357 0.210938ZM96.9048 3.89095C97.2212 3.89095 97.5812 3.9255 97.8703 3.9855C98.0084 4.01459 98.1084 4.13459 98.1084 4.27641V6.19641C98.1084 6.28186 98.0721 6.36186 98.0084 6.41822C97.9448 6.47277 97.8612 6.49641 97.7775 6.48731C97.4248 6.44004 97.1066 6.41822 96.7994 6.41822C94.8266 6.41822 93.8266 7.4855 93.8266 9.58913V15.431C93.8266 15.5928 93.6957 15.7255 93.5321 15.7255H91.5321C91.3703 15.7255 91.2375 15.5946 91.2375 15.431V4.43822C91.2375 4.27641 91.3684 4.14368 91.5321 4.14368H93.4284C93.5903 4.14368 93.723 4.27641 93.723 4.43822V5.19641C93.723 5.27095 93.8175 5.3055 93.8648 5.24913C94.5884 4.38913 95.6866 3.89095 96.9048 3.89095ZM104.93 8.7655L103.829 8.59459C102.627 8.38004 101.838 8.18004 101.838 7.37459C101.838 6.49459 102.572 5.96731 103.801 5.96731C105.03 5.96731 105.912 6.62004 106.194 7.67277C106.234 7.82368 106.385 7.91277 106.536 7.88368L108.356 7.50004C108.51 7.46731 108.621 7.31641 108.59 7.16186C108.214 5.29822 106.161 3.89095 103.821 3.89095C101.147 3.89095 99.205 5.36368 99.205 7.39459C99.205 9.84004 101.085 10.491 102.923 10.8073L104.047 10.9982C105.416 11.2346 106.21 11.531 106.21 12.3491C106.21 13.3073 105.323 13.9273 103.949 13.9273C102.401 13.9273 101.449 13.2455 101.12 11.9C101.081 11.7437 100.93 11.6382 100.772 11.6728L98.9523 12.0564C98.7959 12.0891 98.6886 12.2419 98.7214 12.3982C99.1705 14.6091 101.16 15.9837 103.912 15.9837C106.954 15.9837 108.845 14.5673 108.845 12.2873C108.845 9.67277 106.825 9.10004 104.932 8.76731L104.93 8.7655ZM120.583 0.210938H122.749C122.911 0.210938 123.043 0.343665 123.043 0.505483V15.4328C123.043 15.5946 122.912 15.7273 122.749 15.7273H120.583C120.421 15.7273 120.289 15.5964 120.289 15.4328V9.28912C120.289 9.16003 120.185 9.05639 120.056 9.05639H113.298C113.169 9.05639 113.065 9.16003 113.065 9.28912V15.4328C113.065 15.5946 112.932 15.7273 112.771 15.7273H110.605C110.443 15.7273 110.311 15.5964 110.311 15.4328V0.505483C110.311 0.343665 110.443 0.210938 110.605 0.210938H112.771C112.932 0.210938 113.065 0.343665 113.065 0.505483V6.44185C113.065 6.57094 113.169 6.67457 113.298 6.67457H120.056C120.185 6.67457 120.289 6.57094 120.289 6.44185V0.505483C120.289 0.343665 120.42 0.210938 120.583 0.210938ZM134.594 4.14551H132.594C132.43 4.14551 132.299 4.27824 132.299 4.44005V10.491C132.299 12.7255 130.974 13.7419 129.741 13.7419C128.141 13.7419 127.488 12.9782 127.488 11.1037V4.44005C127.488 4.27642 127.355 4.14551 127.194 4.14551H125.194C125.03 4.14551 124.899 4.27824 124.899 4.44005V11.7564C124.899 14.8746 127.143 15.9801 129.065 15.9801C130.341 15.9801 131.383 15.5873 132.174 14.8091C132.259 14.7255 132.403 14.7837 132.403 14.9037V15.431C132.403 15.5946 132.535 15.7255 132.697 15.7255H134.594C134.757 15.7255 134.888 15.5928 134.888 15.431V4.44005C134.888 4.27642 134.755 4.14551 134.594 4.14551ZM139.381 4.91091C140.108 4.25636 141.168 3.89091 142.385 3.89091C145.494 3.89091 147.665 6.37636 147.665 9.93636C147.665 13.4964 145.494 15.9818 142.385 15.9818C141.112 15.9818 140.016 15.5855 139.281 14.8745C139.198 14.7927 139.056 14.8545 139.056 14.9709V15.4327C139.056 15.5945 138.925 15.7273 138.761 15.7273H136.865C136.703 15.7273 136.57 15.5964 136.57 15.4327V0.294545C136.57 0.132727 136.701 0 136.865 0H138.865C139.027 0 139.159 0.130909 139.159 0.294545V4.81091C139.159 4.92545 139.296 4.98727 139.381 4.91091ZM145.034 9.93455C145.034 7.54909 143.876 6.06727 142.012 6.06727C140.163 6.06727 139.014 7.54909 139.014 9.93455C139.014 12.32 140.148 13.8018 142.012 13.8018C143.876 13.8018 145.034 12.32 145.034 9.93455ZM67.1887 4.16365H65.1887C65.0268 4.16365 64.8941 4.29638 64.8941 4.4582V4.88547C64.8941 4.97456 64.7887 5.02001 64.7232 4.96001C63.9959 4.27638 62.9141 3.89274 61.6687 3.89274C58.5596 3.89274 56.3887 6.3782 56.3887 9.9382C56.3887 13.4982 58.5596 15.9837 61.6687 15.9837C62.9814 15.9837 64.105 15.5618 64.8396 14.8091C64.8977 14.7491 64.9977 14.7909 64.9977 14.8746V15.4346C64.9977 15.5982 65.1305 15.7291 65.2923 15.7291H67.1887C67.3505 15.7291 67.4832 15.5964 67.4832 15.4346V4.4582C67.4832 4.29456 67.3505 4.16365 67.1887 4.16365ZM62.0414 13.8037C60.0723 13.8037 58.6977 12.2127 58.6977 9.93638C58.6977 7.66001 60.0723 6.06911 62.0414 6.06911C63.8905 6.06911 65.0396 7.55092 65.0396 9.93638C65.0396 12.3218 63.8905 13.8037 62.0414 13.8037ZM78.8887 9.95459C78.8887 6.27095 81.0232 3.89095 84.3305 3.89095C85.9396 3.89095 87.3105 4.44368 88.2923 5.49095C89.3959 6.66731 89.9086 8.36186 89.7777 10.3928C89.7687 10.5473 89.6396 10.6691 89.4832 10.6691H81.6814C81.5905 10.6691 81.5196 10.7491 81.5287 10.84C81.7214 12.6237 82.8068 13.8019 84.3523 13.8019C85.8977 13.8019 86.6287 12.9655 86.9687 12.2637C87.0159 12.1637 87.1177 12.1 87.2305 12.1H89.3632C89.4577 12.1 89.5487 12.1473 89.605 12.2255C89.6596 12.3037 89.6741 12.4037 89.6432 12.4928C89.1905 13.7946 87.8996 15.98 84.3505 15.98C81.0832 15.98 78.8887 13.6382 78.8887 9.95459ZM87.0923 8.40913C86.8323 7.2255 85.9941 6.06731 84.3305 6.06731C82.6923 6.06731 81.8668 7.2255 81.6087 8.40913C81.5868 8.50368 81.6614 8.59459 81.7596 8.59459H86.9414C87.0396 8.59459 87.1141 8.5055 87.0923 8.40913Z" fill="#183F37"></path></svg>
